<svg width="724" height="158" viewBox="0 0 724 158" fill="none" xmlns="http://www.w3.org/2000/svg">
<path fill-rule="evenodd" clip-rule="evenodd" d="M29.9862 20.9818C19.4946 32.5228 8.45775 44.6535 5.45675 47.9417L0 53.9199L51.8327 105.507C80.3411 133.881 104.79 157.094 106.164 157.094C110.671 157.094 122.091 142.099 122.091 136.177C122.091 131.673 114.326 122.704 85.1595 93.5228L48.2258 56.5712L60.8183 42.2971L73.4087 28.023L105.864 28.0682L138.319 28.1156L151.065 42.1831L163.809 56.2484L154.823 65.3555C149.881 70.3632 144.89 77.7488 143.73 81.7665C141.203 90.5337 144.074 103.144 149.764 108.266C153.432 111.567 155.349 110.087 182.697 82.8274L211.736 53.8877L205.176 46.8485C201.567 42.9793 190.51 30.8529 180.605 19.9058L162.595 0H105.827H49.0588L29.9862 20.9818Z" fill="url(#paint0_linear_67_2)"/>
<path d="M708.555 27.3208H724V89.3208H708.555L685.255 54.3498V89.3208H669.81V27.3208H685.255L708.555 62.3795V27.3208Z" fill="white"/>
<path d="M646.994 89.3208L643.703 79.5359H619.965L616.63 89.3208H600L622.817 27.3208H641.07L663.887 89.3208H646.994ZM624.703 65.3194L631.812 57.4944L638.92 65.3194L631.812 44.3894L624.703 65.3194Z" fill="white"/>
<path d="M334.17 89.5402L330.88 79.7553H307.141L303.807 89.5402H287.177L309.994 27.5401H328.247L351.064 89.5402H334.17ZM311.88 65.5387L318.989 57.7138L326.097 65.5387L318.989 44.6088L311.88 65.5387Z" fill="white"/>
<path d="M578.719 89.3208V27.3208H594.164V89.3208H578.719Z" fill="white"/>
<path d="M544.816 74.7532H574.551L562.382 89.3208H529.37V27.3208H544.816V74.7532Z" fill="white"/>
<path d="M494.911 74.7532H522.335V89.3208H479.466V27.3208H521.897V41.8883H494.911V50.8395H519.001V65.4071H494.911V74.7532Z" fill="white"/>
<path d="M390.218 89.3208L378.063 69.0929H371.964V89.3208H356.519V27.3208H383.855C388.009 27.3208 391.768 28.2422 395.132 30.0851C398.525 31.8987 401.187 34.4437 403.118 37.7199C405.049 40.9669 406.014 44.5942 406.014 48.6017C406.014 52.6678 404.961 56.3097 402.855 59.5274C400.778 62.7159 397.94 65.1585 394.342 66.8551L407.813 89.3208H390.218ZM371.964 41.8883V55.6223H383.461C385.391 55.6223 387 54.9641 388.287 53.6477C389.574 52.3314 390.218 50.6786 390.218 48.6895C390.218 46.7588 389.574 45.15 388.287 43.8629C387 42.5465 385.391 41.8883 383.461 41.8883H371.964Z" fill="white"/>
<path d="M258.217 91.7341C253.625 91.7341 249.295 90.915 245.229 89.2769C241.163 87.6095 237.682 85.3571 234.786 82.5197C231.89 79.6822 229.594 76.2889 227.897 72.3399C226.23 68.3616 225.396 64.12 225.396 59.6152C225.396 53.6185 226.815 48.1776 229.652 43.2925C232.519 38.3781 236.454 34.5314 241.456 31.7525C246.487 28.9443 252.074 27.5401 258.217 27.5401C264.009 27.5401 269.304 28.7834 274.101 31.2698C278.928 33.7562 282.804 37.1641 285.729 41.4934L272.39 49.7426C270.839 47.4609 268.821 45.6765 266.335 44.3894C263.877 43.1023 261.172 42.4588 258.217 42.4588C253.391 42.4588 249.354 44.0969 246.107 47.3731C242.86 50.6494 241.236 54.7301 241.236 59.6152C241.236 64.5003 242.86 68.5956 246.107 71.9011C249.383 75.1773 253.42 76.8155 258.217 76.8155C261.172 76.8155 263.877 76.1719 266.335 74.8848C268.821 73.5977 270.839 71.8134 272.39 69.5317L285.729 77.7808C282.804 82.1101 278.928 85.518 274.101 88.0044C269.304 90.4909 264.009 91.7341 258.217 91.7341Z" fill="white"/>
<path d="M414.482 89.3208V27.5401H429.847L459.362 68.6684L455.803 67.7858C455.513 65.6088 455.253 63.6377 455.021 61.8725C454.848 60.1074 454.674 58.4305 454.501 56.8418C454.385 55.2532 454.269 53.6645 454.153 52.0759C454.095 50.4872 454.067 48.7515 454.067 46.8687C454.067 44.9858 454.067 42.8676 454.067 40.5141V27.5401H470.647V89.3208H455.108L423.337 45.1918L429.327 46.6921C429.616 49.1045 429.847 51.1933 430.021 52.9585C430.252 54.7236 430.426 56.3123 430.542 57.7244C430.658 59.1365 430.744 60.4898 430.802 61.7843C430.918 63.0787 430.976 64.4614 430.976 65.9324C431.034 67.4034 431.063 69.0803 431.063 70.9631V89.3208H414.482Z" fill="white"/>
<path d="M461.295 133.189L460.146 127.813H447.724L445.058 133.189H437.687L453.491 102.558H461.62L468.838 133.189H461.295ZM450.824 121.461H458.823L456.417 110.145L450.824 121.461Z" fill="#FDFDFD"/>
<path d="M427.499 133.189L431.813 102.558H438.706L434.392 133.189H427.499Z" fill="#FDFDFD"/>
<path d="M426.046 112.812C425.757 114.907 424.919 116.771 423.532 118.404C422.159 120.023 420.453 121.208 418.416 121.96L424.009 133.189H415.749L410.915 122.718H407.577L406.124 133.189H399.231L403.545 102.558H416.812C419.861 102.558 422.267 103.541 424.03 105.506C425.793 107.457 426.465 109.892 426.046 112.812ZM419.001 112.898C419.16 111.785 418.929 110.868 418.307 110.145C417.686 109.408 416.833 109.04 415.749 109.04H409.506L408.422 116.714H414.687C415.757 116.714 416.703 116.352 417.527 115.63C418.365 114.893 418.857 113.982 419.001 112.898Z" fill="#FDFDFD"/>
<path d="M397.778 109.04H383.84L383.081 114.546H395.546L394.613 121.027H382.192L381.39 126.707H395.459L394.57 133.189H373.564L377.878 102.558H398.667L397.778 109.04Z" fill="#FDFDFD"/>
<path d="M357.913 102.558C360.847 102.558 363.412 103.223 365.608 104.552C367.82 105.882 369.438 107.717 370.464 110.058C371.49 112.385 371.808 114.987 371.418 117.862C371.014 120.738 369.966 123.347 368.275 125.688C366.584 128.029 364.445 129.865 361.858 131.194C359.286 132.524 356.533 133.189 353.599 133.189H341.524L345.838 102.558H357.913ZM364.351 117.862C364.712 115.348 364.178 113.252 362.747 111.576C361.316 109.885 359.351 109.04 356.851 109.04H351.8L349.35 126.707H354.358C356.843 126.707 359.04 125.862 360.948 124.171C362.855 122.465 363.99 120.363 364.351 117.862Z" fill="#FDFDFD"/>
<path d="M323.402 133.731C321.003 133.731 318.9 133.196 317.094 132.126C315.301 131.043 313.986 129.554 313.148 127.661C312.31 125.753 312.057 123.629 312.389 121.288L315.012 102.558H321.884L319.261 121.201C319.016 122.892 319.377 124.301 320.345 125.428C321.313 126.541 322.643 127.097 324.334 127.097C326.025 127.097 327.506 126.541 328.778 125.428C330.064 124.301 330.83 122.892 331.076 121.201L333.699 102.558H340.571L337.904 121.288C337.413 124.828 335.78 127.791 333.005 130.175C330.23 132.546 327.029 133.731 323.402 133.731Z" fill="#FDFDFD"/>
<path d="M293.877 133.731C290.842 133.731 288.183 133.044 285.899 131.671C283.63 130.284 281.961 128.376 280.892 125.948C279.837 123.52 279.519 120.825 279.938 117.862C280.342 114.9 281.419 112.212 283.168 109.798C284.916 107.37 287.128 105.47 289.801 104.097C292.475 102.71 295.329 102.016 298.364 102.016C301.211 102.016 303.726 102.63 305.908 103.859C308.09 105.073 309.766 106.756 310.937 108.909L304.455 112.595C303.805 111.366 302.866 110.398 301.637 109.69C300.409 108.982 299.007 108.628 297.432 108.628C294.83 108.628 292.533 109.509 290.538 111.272C288.558 113.021 287.38 115.218 287.005 117.862C286.629 120.507 287.185 122.711 288.674 124.474C290.162 126.223 292.207 127.097 294.809 127.097C296.384 127.097 297.887 126.75 299.318 126.057C300.748 125.349 301.97 124.38 302.981 123.152L308.401 126.837C306.638 128.976 304.484 130.66 301.941 131.888C299.412 133.116 296.724 133.731 293.877 133.731Z" fill="#FDFDFD"/>
<path d="M263.354 133.731C260.998 133.731 258.715 133.297 256.504 132.43C254.293 131.548 252.479 130.378 251.063 128.918L255.312 123.694C256.41 124.864 257.761 125.811 259.365 126.534C260.97 127.242 262.581 127.596 264.2 127.596C265.616 127.596 266.859 127.314 267.928 126.75C269.012 126.187 269.605 125.464 269.706 124.583C269.749 124.236 269.72 123.925 269.619 123.65C269.532 123.361 269.344 123.101 269.055 122.87C268.766 122.639 268.485 122.444 268.21 122.285C267.935 122.111 267.524 121.938 266.974 121.764C266.425 121.591 265.977 121.454 265.63 121.353C265.283 121.251 264.763 121.114 264.07 120.941C257.19 119.221 254.083 115.962 254.748 111.164C255.124 108.418 256.511 106.207 258.91 104.531C261.324 102.854 264.301 102.016 267.841 102.016C270.11 102.016 272.134 102.363 273.911 103.056C275.703 103.736 277.112 104.646 278.138 105.788L274.193 111.034C273.427 110.181 272.379 109.488 271.05 108.953C269.735 108.418 268.354 108.151 266.909 108.151C265.536 108.151 264.38 108.411 263.441 108.931C262.501 109.437 261.974 110.095 261.858 110.904C261.786 111.381 261.873 111.814 262.119 112.205C262.379 112.595 262.769 112.927 263.289 113.202C263.824 113.476 264.373 113.708 264.937 113.895C265.515 114.083 266.187 114.257 266.953 114.416C267.458 114.531 267.935 114.654 268.383 114.784C268.846 114.9 269.46 115.102 270.226 115.391C270.992 115.666 271.671 115.969 272.264 116.302C272.871 116.62 273.507 117.046 274.171 117.581C274.836 118.101 275.378 118.672 275.797 119.293C276.216 119.9 276.527 120.637 276.729 121.504C276.946 122.357 276.99 123.275 276.859 124.257C276.585 126.093 275.804 127.74 274.518 129.2C273.246 130.645 271.635 131.765 269.684 132.56C267.733 133.34 265.623 133.731 263.354 133.731Z" fill="#FDFDFD"/>
<path d="M250.933 109.04H236.994L236.235 114.546H248.7L247.768 121.027H235.346L234.544 126.707H248.613L247.724 133.189H226.719L231.033 102.558H251.822L250.933 109.04Z" fill="#FDFDFD"/>
<defs>
<linearGradient id="paint0_linear_67_2" x1="0" y1="78.5472" x2="211.736" y2="78.5472" gradientUnits="userSpaceOnUse">
<stop stop-color="#C53237"/>
<stop offset="0.495" stop-color="#D55434"/>
<stop offset="1" stop-color="#F9A231"/>
</linearGradient>
</defs>
</svg>
